# xmcd
#
# Track frame offsets: 
#        150
#        16082
#        31665
#        43735
#        55507
#        73837
#        90942
#        99412
#        111710
#        124075
#        135470
#
# Disc length: 1975 seconds
#
# Revision: 2
# Processed by: cddbd v1.5.2PL0 Copyright (c) Steve Scherf et al.
# Submitted via: ExactAudioCopy v1.0b3
#
DISCID=8707b50b
DTITLE=Kelly, Jo-Ann - Jo-Ann Kelly
DYEAR=1969
DGENRE=Blues
TTITLE0=Louisiana Blues
TTITLE1=Fingerprints Blues
TTITLE2=Driftin' And Driftin'
TTITLE3=Look Here Partner
TTITLE4=Moon Going Down
TTITLE5=Yellow Bee Blues
TTITLE6=Whiskey Head Woman
TTITLE7=Sit Down On My Knee
TTITLE8=Man I'm Lovin'
TTITLE9=Jinx Blues
TTITLE10=Come On In My Kitchen
EXTD=
EXTT0=
EXTT1=
EXTT2=
EXTT3=
EXTT4=
EXTT5=
EXTT6=
EXTT7=
EXTT8=
EXTT9=
EXTT10=
PLAYORDER=
